<?xml version="1.0" encoding="utf-8" standalone="no"?>
<!DOCTYPE svg PUBLIC "-//W3C//DTD SVG 1.1//EN"
  "http://www.w3.org/Graphics/SVG/1.1/DTD/svg11.dtd">
<svg xmlns:xlink="http://www.w3.org/1999/xlink" width="720pt" height="432pt" viewBox="0 0 720 432" xmlns="http://www.w3.org/2000/svg" version="1.1">
 <metadata>
  <rdf:RDF xmlns:dc="http://purl.org/dc/elements/1.1/" xmlns:cc="http://creativecommons.org/ns#" xmlns:rdf="http://www.w3.org/1999/02/22-rdf-syntax-ns#">
   <cc:Work>
    <dc:type rdf:resource="http://purl.org/dc/dcmitype/StillImage"/>
    <dc:date>2025-06-10T17:24:58.677917</dc:date>
    <dc:format>image/svg+xml</dc:format>
    <dc:creator>
     <cc:Agent>
      <dc:title>Matplotlib v3.9.2, https://matplotlib.org/</dc:title>
     </cc:Agent>
    </dc:creator>
   </cc:Work>
  </rdf:RDF>
 </metadata>
 <defs>
  <style type="text/css">*{stroke-linejoin: round; stroke-linecap: butt}</style>
 </defs>
 <g id="figure_1">
  <g id="patch_1">
   <path d="M 0 432 
L 720 432 
L 720 0 
L 0 0 
z
" style="fill: #ffffff"/>
  </g>
  <g id="axes_1">
   <g id="patch_2">
    <path d="M 90 384.48 
L 648 384.48 
L 648 51.84 
L 90 51.84 
z
" style="fill: #ffffff"/>
   </g>
   <g id="PathCollection_1">
    <path d="M 611.265 355.687999 
C 612.274554 355.687999 613.242895 355.286899 613.956757 354.573037 
C 614.670619 353.859175 615.071719 352.890834 615.071719 351.88128 
C 615.071719 350.871726 614.670619 349.903385 613.956757 349.189523 
C 613.242895 348.475661 612.274554 348.074561 611.265 348.074561 
C 610.255446 348.074561 609.287105 348.475661 608.573243 349.189523 
C 607.859381 349.903385 607.458281 350.871726 607.458281 351.88128 
C 607.458281 352.890834 607.859381 353.859175 608.573243 354.573037 
C 609.287105 355.286899 610.255446 355.687999 611.265 355.687999 
z
" clip-path="url(#padb9a08eaf)" style="fill: #218e8d; fill-opacity: 0.5; stroke: #218e8d; stroke-opacity: 0.5"/>
    <path d="M 377.6025 339.901128 
C 378.218664 339.901128 378.809675 339.656323 379.245369 339.220629 
C 379.681063 338.784935 379.925868 338.193924 379.925868 337.57776 
C 379.925868 336.961596 379.681063 336.370585 379.245369 335.934891 
C 378.809675 335.499197 378.218664 335.254392 377.6025 335.254392 
C 376.986336 335.254392 376.395325 335.499197 375.959631 335.934891 
C 375.523937 336.370585 375.279132 336.961596 375.279132 337.57776 
C 375.279132 338.193924 375.523937 338.784935 375.959631 339.220629 
C 376.395325 339.656323 376.986336 339.901128 377.6025 339.901128 
z
" clip-path="url(#padb9a08eaf)" style="fill: #481b6d; fill-opacity: 0.5; stroke: #481b6d; stroke-opacity: 0.5"/>
    <path d="M 121.62 197.234399 
C 122.8279 197.234399 123.98649 196.754495 124.840605 195.900381 
C 125.694719 195.046266 126.174623 193.887676 126.174623 192.679776 
C 126.174623 191.471876 125.694719 190.313286 124.840605 189.459171 
C 123.98649 188.605057 122.8279 188.125153 121.62 188.125153 
C 120.4121 188.125153 119.25351 188.605057 118.399395 189.459171 
C 117.545281 190.313286 117.065377 191.471876 117.065377 192.679776 
C 117.065377 193.887676 117.545281 195.046266 118.399395 195.900381 
C 119.25351 196.754495 120.4121 197.234399 121.62 197.234399 
z
" clip-path="url(#padb9a08eaf)" style="fill: #440154; fill-opacity: 0.5; stroke: #440154; stroke-opacity: 0.5"/>
    <path d="M 178.5825 202.8613 
C 179.924127 202.8613 181.210986 202.328266 182.15966 201.379592 
C 183.108334 200.430918 183.641368 199.144059 183.641368 197.802432 
C 183.641368 196.460805 183.108334 195.173946 182.15966 194.225272 
C 181.210986 193.276598 179.924127 192.743564 178.5825 192.743564 
C 177.240873 192.743564 175.954014 193.276598 175.00534 194.225272 
C 174.056666 195.173946 173.523632 196.460805 173.523632 197.802432 
C 173.523632 199.144059 174.056666 200.430918 175.00534 201.379592 
C 175.954014 202.328266 177.240873 202.8613 178.5825 202.8613 
z
" clip-path="url(#padb9a08eaf)" style="fill: #fde725; fill-opacity: 0.5; stroke: #fde725; stroke-opacity: 0.5"/>
    <path d="M 196.95 175.216626 
C 198.811501 175.216626 200.597011 174.477044 201.913292 173.160764 
C 203.229572 171.844483 203.969154 170.058973 203.969154 168.197472 
C 203.969154 166.335971 203.229572 164.550461 201.913292 163.23418 
C 200.597011 161.9179 198.811501 161.178318 196.95 161.178318 
C 195.088499 161.178318 193.302989 161.9179 191.986708 163.23418 
C 190.670428 164.550461 189.930846 166.335971 189.930846 168.197472 
C 189.930846 170.058973 190.670428 171.844483 191.986708 173.160764 
C 193.302989 174.477044 195.088499 175.216626 196.95 175.216626 
z
" clip-path="url(#padb9a08eaf)" style="fill: #423f85; fill-opacity: 0.5; stroke: #423f85; stroke-opacity: 0.5"/>
    <path d="M 505.0125 269.656165 
C 506.760126 269.656165 508.436409 268.961826 509.672168 267.726068 
C 510.907926 266.490309 511.602265 264.814026 511.602265 263.0664 
C 511.602265 261.318774 510.907926 259.642491 509.672168 258.406732 
C 508.436409 257.170974 506.760126 256.476635 505.0125 256.476635 
C 503.264874 256.476635 501.588591 257.170974 500.352832 258.406732 
C 499.117074 259.642491 498.422735 261.318774 498.422735 263.0664 
C 498.422735 264.814026 499.117074 266.490309 500.352832 267.726068 
C 501.588591 268.961826 503.264874 269.656165 505.0125 269.656165 
z
" clip-path="url(#padb9a08eaf)" style="fill: #1e9b8a; fill-opacity: 0.5; stroke: #1e9b8a; stroke-opacity: 0.5"/>
    <path d="M 425.73 128.090709 
C 431.99597 128.090709 438.006146 125.601213 442.436855 121.170503 
C 446.867565 116.739794 449.357061 110.729618 449.357061 104.463648 
C 449.357061 98.197678 446.867565 92.187502 442.436855 87.756793 
C 438.006146 83.326083 431.99597 80.836587 425.73 80.836587 
C 419.46403 80.836587 413.453854 83.326083 409.023145 87.756793 
C 404.592435 92.187502 402.102939 98.197678 402.102939 104.463648 
C 402.102939 110.729618 404.592435 116.739794 409.023145 121.170503 
C 413.453854 125.601213 419.46403 128.090709 425.73 128.090709 
z
" clip-path="url(#padb9a08eaf)" style="fill: #46307e; fill-opacity: 0.5; stroke: #46307e; stroke-opacity: 0.5"/>
    <path d="M 402.48 114.435779 
C 409.306133 114.435779 415.853605 111.723727 420.68041 106.896922 
C 425.507215 102.070117 428.219267 95.522645 428.219267 88.696512 
C 428.219267 81.870379 425.507215 75.322907 420.68041 70.496102 
C 415.853605 65.669297 409.306133 62.957245 402.48 62.957245 
C 395.653867 62.957245 389.106395 65.669297 384.27959 70.496102 
C 379.452785 75.322907 376.740733 81.870379 376.740733 88.696512 
C 376.740733 95.522645 379.452785 102.070117 384.27959 106.896922 
C 389.106395 111.723727 395.653867 114.435779 402.48 114.435779 
z
" clip-path="url(#padb9a08eaf)" style="fill: #460a5d; fill-opacity: 0.5; stroke: #460a5d; stroke-opacity: 0.5"/>
   </g>
   <g id="matplotlib.axis_1">
    <g id="xtick_1">
     <g id="line2d_1">
      <path d="M 159.75 384.48 
L 159.75 51.84 
" clip-path="url(#padb9a08eaf)" style="fill: none"/>
     </g>
     <g id="line2d_2">
      <defs>
       <path id="m82805a72e3" d="M 0 0 
L 0 3.5 
" style="stroke: #000000; stroke-width: 0.8"/>
      </defs>
      <g>
       <use xlink:href="#m82805a72e3" x="159.75" y="384.48" style="stroke: #000000; stroke-width: 0.8"/>
      </g>
     </g>
     <g id="text_1">
      <!-- 45 -->
      <g transform="translate(154.75 398.42375) scale(0.1 -0.1)">
       <defs>
        <path id="TimesNewRomanPSMT-34" d="M 2978 1563 
L 2978 1119 
L 2409 1119 
L 2409 0 
L 1894 0 
L 1894 1119 
L 100 1119 
L 100 1519 
L 2066 4325 
L 2409 4325 
L 2409 1563 
L 2978 1563 
z
M 1894 1563 
L 1894 3666 
L 406 1563 
L 1894 1563 
z
" transform="scale(0.015625)"/>
        <path id="TimesNewRomanPSMT-35" d="M 2778 4238 
L 2534 3706 
L 1259 3706 
L 981 3138 
Q 1809 3016 2294 2522 
Q 2709 2097 2709 1522 
Q 2709 1188 2573 903 
Q 2438 619 2231 419 
Q 2025 219 1772 97 
Q 1413 -75 1034 -75 
Q 653 -75 479 54 
Q 306 184 306 341 
Q 306 428 378 495 
Q 450 563 559 563 
Q 641 563 702 538 
Q 763 513 909 409 
Q 1144 247 1384 247 
Q 1750 247 2026 523 
Q 2303 800 2303 1197 
Q 2303 1581 2056 1914 
Q 1809 2247 1375 2428 
Q 1034 2569 447 2591 
L 1259 4238 
L 2778 4238 
z
" transform="scale(0.015625)"/>
       </defs>
       <use xlink:href="#TimesNewRomanPSMT-34"/>
       <use xlink:href="#TimesNewRomanPSMT-35" x="50"/>
      </g>
     </g>
    </g>
    <g id="xtick_2">
     <g id="line2d_3">
      <path d="M 276 384.48 
L 276 51.84 
" clip-path="url(#padb9a08eaf)" style="fill: none"/>
     </g>
     <g id="line2d_4">
      <g>
       <use xlink:href="#m82805a72e3" x="276" y="384.48" style="stroke: #000000; stroke-width: 0.8"/>
      </g>
     </g>
     <g id="text_2">
      <!-- 50 -->
      <g transform="translate(271 398.42375) scale(0.1 -0.1)">
       <defs>
        <path id="TimesNewRomanPSMT-30" d="M 231 2094 
Q 231 2819 450 3342 
Q 669 3866 1031 4122 
Q 1313 4325 1613 4325 
Q 2100 4325 2488 3828 
Q 2972 3213 2972 2159 
Q 2972 1422 2759 906 
Q 2547 391 2217 158 
Q 1888 -75 1581 -75 
Q 975 -75 572 641 
Q 231 1244 231 2094 
z
M 844 2016 
Q 844 1141 1059 588 
Q 1238 122 1591 122 
Q 1759 122 1940 273 
Q 2122 425 2216 781 
Q 2359 1319 2359 2297 
Q 2359 3022 2209 3506 
Q 2097 3866 1919 4016 
Q 1791 4119 1609 4119 
Q 1397 4119 1231 3928 
Q 1006 3669 925 3112 
Q 844 2556 844 2016 
z
" transform="scale(0.015625)"/>
       </defs>
       <use xlink:href="#TimesNewRomanPSMT-35"/>
       <use xlink:href="#TimesNewRomanPSMT-30" x="50"/>
      </g>
     </g>
    </g>
    <g id="xtick_3">
     <g id="line2d_5">
      <path d="M 392.25 384.48 
L 392.25 51.84 
" clip-path="url(#padb9a08eaf)" style="fill: none"/>
     </g>
     <g id="line2d_6">
      <g>
       <use xlink:href="#m82805a72e3" x="392.25" y="384.48" style="stroke: #000000; stroke-width: 0.8"/>
      </g>
     </g>
     <g id="text_3">
      <!-- 55 -->
      <g transform="translate(387.25 398.42375) scale(0.1 -0.1)">
       <use xlink:href="#TimesNewRomanPSMT-35"/>
       <use xlink:href="#TimesNewRomanPSMT-35" x="50"/>
      </g>
     </g>
    </g>
    <g id="xtick_4">
     <g id="line2d_7">
      <path d="M 508.5 384.48 
L 508.5 51.84 
" clip-path="url(#padb9a08eaf)" style="fill: none"/>
     </g>
     <g id="line2d_8">
      <g>
       <use xlink:href="#m82805a72e3" x="508.5" y="384.48" style="stroke: #000000; stroke-width: 0.8"/>
      </g>
     </g>
     <g id="text_4">
      <!-- 60 -->
      <g transform="translate(503.5 398.42375) scale(0.1 -0.1)">
       <defs>
        <path id="TimesNewRomanPSMT-36" d="M 2869 4325 
L 2869 4209 
Q 2456 4169 2195 4045 
Q 1934 3922 1679 3669 
Q 1425 3416 1258 3105 
Q 1091 2794 978 2366 
Q 1428 2675 1881 2675 
Q 2316 2675 2634 2325 
Q 2953 1975 2953 1425 
Q 2953 894 2631 456 
Q 2244 -75 1606 -75 
Q 1172 -75 869 213 
Q 275 772 275 1663 
Q 275 2231 503 2743 
Q 731 3256 1154 3653 
Q 1578 4050 1965 4187 
Q 2353 4325 2688 4325 
L 2869 4325 
z
M 925 2138 
Q 869 1716 869 1456 
Q 869 1156 980 804 
Q 1091 453 1309 247 
Q 1469 100 1697 100 
Q 1969 100 2183 356 
Q 2397 613 2397 1088 
Q 2397 1622 2184 2012 
Q 1972 2403 1581 2403 
Q 1463 2403 1327 2353 
Q 1191 2303 925 2138 
z
" transform="scale(0.015625)"/>
       </defs>
       <use xlink:href="#TimesNewRomanPSMT-36"/>
       <use xlink:href="#TimesNewRomanPSMT-30" x="50"/>
      </g>
     </g>
    </g>
    <g id="xtick_5">
     <g id="line2d_9">
      <path d="M 624.75 384.48 
L 624.75 51.84 
" clip-path="url(#padb9a08eaf)" style="fill: none"/>
     </g>
     <g id="line2d_10">
      <g>
       <use xlink:href="#m82805a72e3" x="624.75" y="384.48" style="stroke: #000000; stroke-width: 0.8"/>
      </g>
     </g>
     <g id="text_5">
      <!-- 65 -->
      <g transform="translate(619.75 398.42375) scale(0.1 -0.1)">
       <use xlink:href="#TimesNewRomanPSMT-36"/>
       <use xlink:href="#TimesNewRomanPSMT-35" x="50"/>
      </g>
     </g>
    </g>
    <g id="text_6">
     <!-- Zero-shot clean accuracy(%) -->
     <g transform="translate(245.320312 418.106562) scale(0.2 -0.2)">
      <defs>
       <path id="TimesNewRomanPS-BoldMT-5a" d="M 3906 4238 
L 1416 238 
L 2222 238 
Q 2794 238 3022 309 
Q 3394 422 3662 723 
Q 3931 1025 4034 1531 
L 4156 1531 
L 3984 0 
L 103 0 
L 2597 4006 
L 1969 4006 
Q 1603 4006 1488 3984 
Q 1269 3944 1076 3823 
Q 884 3703 757 3503 
Q 631 3303 559 2997 
L 444 2997 
L 559 4238 
L 3906 4238 
z
" transform="scale(0.015625)"/>
       <path id="TimesNewRomanPS-BoldMT-65" d="M 2691 1566 
L 1088 1566 
Q 1116 984 1397 647 
Q 1613 388 1916 388 
Q 2103 388 2256 492 
Q 2409 597 2584 869 
L 2691 800 
Q 2453 316 2165 114 
Q 1878 -88 1500 -88 
Q 850 -88 516 413 
Q 247 816 247 1413 
Q 247 2144 642 2576 
Q 1038 3009 1569 3009 
Q 2013 3009 2339 2645 
Q 2666 2281 2691 1566 
z
M 1922 1775 
Q 1922 2278 1867 2465 
Q 1813 2653 1697 2750 
Q 1631 2806 1522 2806 
Q 1359 2806 1256 2647 
Q 1072 2369 1072 1884 
L 1072 1775 
L 1922 1775 
z
" transform="scale(0.015625)"/>
       <path id="TimesNewRomanPS-BoldMT-72" d="M 1428 2922 
L 1428 2259 
Q 1719 2713 1937 2861 
Q 2156 3009 2359 3009 
Q 2534 3009 2639 2901 
Q 2744 2794 2744 2597 
Q 2744 2388 2642 2272 
Q 2541 2156 2397 2156 
Q 2231 2156 2109 2262 
Q 1988 2369 1966 2381 
Q 1934 2400 1894 2400 
Q 1803 2400 1722 2331 
Q 1594 2225 1528 2028 
Q 1428 1725 1428 1359 
L 1428 688 
L 1431 513 
Q 1431 334 1453 284 
Q 1491 200 1564 161 
Q 1638 122 1813 113 
L 1813 0 
L 234 0 
L 234 113 
Q 425 128 492 217 
Q 559 306 559 688 
L 559 2303 
Q 559 2553 534 2622 
Q 503 2709 443 2750 
Q 384 2791 234 2806 
L 234 2922 
L 1428 2922 
z
" transform="scale(0.015625)"/>
       <path id="TimesNewRomanPS-BoldMT-6f" d="M 1594 3009 
Q 1975 3009 2303 2812 
Q 2631 2616 2801 2253 
Q 2972 1891 2972 1459 
Q 2972 838 2656 419 
Q 2275 -88 1603 -88 
Q 944 -88 587 375 
Q 231 838 231 1447 
Q 231 2075 595 2542 
Q 959 3009 1594 3009 
z
M 1606 2788 
Q 1447 2788 1333 2667 
Q 1219 2547 1183 2192 
Q 1147 1838 1147 1206 
Q 1147 872 1191 581 
Q 1225 359 1337 243 
Q 1450 128 1594 128 
Q 1734 128 1828 206 
Q 1950 313 1991 503 
Q 2053 800 2053 1703 
Q 2053 2234 1993 2432 
Q 1934 2631 1819 2722 
Q 1738 2788 1606 2788 
z
" transform="scale(0.015625)"/>
       <path id="TimesNewRomanPS-BoldMT-2d" d="M 1978 1147 
L 156 1147 
L 156 1794 
L 1978 1794 
L 1978 1147 
z
" transform="scale(0.015625)"/>
       <path id="TimesNewRomanPS-BoldMT-73" d="M 2063 3003 
L 2109 2006 
L 2003 2006 
Q 1813 2450 1608 2612 
Q 1403 2775 1200 2775 
Q 1072 2775 981 2689 
Q 891 2603 891 2491 
Q 891 2406 953 2328 
Q 1053 2200 1512 1889 
Q 1972 1578 2117 1361 
Q 2263 1144 2263 875 
Q 2263 631 2141 397 
Q 2019 163 1797 37 
Q 1575 -88 1306 -88 
Q 1097 -88 747 44 
Q 653 78 619 78 
Q 516 78 447 -78 
L 344 -78 
L 294 972 
L 400 972 
Q 541 559 786 353 
Q 1031 147 1250 147 
Q 1400 147 1495 239 
Q 1591 331 1591 463 
Q 1591 613 1497 722 
Q 1403 831 1078 1053 
Q 600 1384 459 1559 
Q 253 1816 253 2125 
Q 253 2463 486 2736 
Q 719 3009 1159 3009 
Q 1397 3009 1619 2894 
Q 1703 2847 1756 2847 
Q 1813 2847 1847 2870 
Q 1881 2894 1956 3003 
L 2063 3003 
z
" transform="scale(0.015625)"/>
       <path id="TimesNewRomanPS-BoldMT-68" d="M 1409 4238 
L 1409 2547 
Q 1650 2800 1850 2904 
Q 2050 3009 2266 3009 
Q 2541 3009 2736 2853 
Q 2931 2697 2995 2486 
Q 3059 2275 3059 1775 
L 3059 634 
Q 3059 300 3121 217 
Q 3184 134 3375 113 
L 3375 0 
L 1894 0 
L 1894 113 
Q 2050 134 2128 238 
Q 2184 319 2184 634 
L 2184 1938 
Q 2184 2300 2156 2392 
Q 2128 2484 2061 2536 
Q 1994 2588 1909 2588 
Q 1784 2588 1665 2502 
Q 1547 2416 1409 2200 
L 1409 634 
Q 1409 322 1456 244 
Q 1516 138 1700 113 
L 1700 0 
L 219 0 
L 219 113 
Q 403 131 481 231 
Q 534 300 534 634 
L 534 3603 
Q 534 3934 473 4015 
Q 413 4097 219 4122 
L 219 4238 
L 1409 4238 
z
" transform="scale(0.015625)"/>
       <path id="TimesNewRomanPS-BoldMT-74" d="M 1375 3991 
L 1375 2922 
L 2069 2922 
L 2069 2613 
L 1375 2613 
L 1375 809 
Q 1375 556 1398 482 
Q 1422 409 1481 364 
Q 1541 319 1591 319 
Q 1794 319 1975 628 
L 2069 559 
Q 1816 -41 1247 -41 
Q 969 -41 776 114 
Q 584 269 531 459 
Q 500 566 500 1034 
L 500 2613 
L 119 2613 
L 119 2722 
Q 513 3000 789 3306 
Q 1066 3613 1272 3991 
L 1375 3991 
z
" transform="scale(0.015625)"/>
       <path id="TimesNewRomanPS-BoldMT-20" transform="scale(0.015625)"/>
       <path id="TimesNewRomanPS-BoldMT-63" d="M 2600 753 
L 2697 678 
Q 2491 291 2183 101 
Q 1875 -88 1528 -88 
Q 944 -88 594 353 
Q 244 794 244 1413 
Q 244 2009 563 2463 
Q 947 3009 1622 3009 
Q 2075 3009 2342 2781 
Q 2609 2553 2609 2272 
Q 2609 2094 2501 1987 
Q 2394 1881 2219 1881 
Q 2034 1881 1914 2003 
Q 1794 2125 1766 2438 
Q 1747 2634 1675 2713 
Q 1603 2791 1506 2791 
Q 1356 2791 1250 2631 
Q 1088 2391 1088 1894 
Q 1088 1481 1219 1104 
Q 1350 728 1578 544 
Q 1750 409 1984 409 
Q 2138 409 2275 481 
Q 2413 553 2600 753 
z
" transform="scale(0.015625)"/>
       <path id="TimesNewRomanPS-BoldMT-6c" d="M 1359 4238 
L 1359 606 
Q 1359 297 1431 211 
Q 1503 125 1713 113 
L 1713 0 
L 134 0 
L 134 113 
Q 328 119 422 225 
Q 484 297 484 606 
L 484 3631 
Q 484 3938 412 4023 
Q 341 4109 134 4122 
L 134 4238 
L 1359 4238 
z
" transform="scale(0.015625)"/>
       <path id="TimesNewRomanPS-BoldMT-61" d="M 1828 431 
Q 1294 -41 869 -41 
Q 619 -41 453 123 
Q 288 288 288 534 
Q 288 869 575 1136 
Q 863 1403 1828 1847 
L 1828 2141 
Q 1828 2472 1792 2558 
Q 1756 2644 1656 2708 
Q 1556 2772 1431 2772 
Q 1228 2772 1097 2681 
Q 1016 2625 1016 2550 
Q 1016 2484 1103 2388 
Q 1222 2253 1222 2128 
Q 1222 1975 1108 1867 
Q 994 1759 809 1759 
Q 613 1759 480 1878 
Q 347 1997 347 2156 
Q 347 2381 525 2586 
Q 703 2791 1022 2900 
Q 1341 3009 1684 3009 
Q 2100 3009 2342 2832 
Q 2584 2656 2656 2450 
Q 2700 2319 2700 1847 
L 2700 713 
Q 2700 513 2715 461 
Q 2731 409 2762 384 
Q 2794 359 2834 359 
Q 2916 359 3000 475 
L 3094 400 
Q 2938 169 2770 64 
Q 2603 -41 2391 -41 
Q 2141 -41 2000 76 
Q 1859 194 1828 431 
z
M 1828 659 
L 1828 1638 
Q 1450 1416 1266 1163 
Q 1144 994 1144 822 
Q 1144 678 1247 569 
Q 1325 484 1466 484 
Q 1622 484 1828 659 
z
" transform="scale(0.015625)"/>
       <path id="TimesNewRomanPS-BoldMT-6e" d="M 1409 2922 
L 1409 2544 
Q 1634 2788 1840 2898 
Q 2047 3009 2284 3009 
Q 2569 3009 2756 2851 
Q 2944 2694 3006 2459 
Q 3056 2281 3056 1775 
L 3056 638 
Q 3056 300 3117 217 
Q 3178 134 3372 113 
L 3372 0 
L 1894 0 
L 1894 113 
Q 2059 134 2131 250 
Q 2181 328 2181 638 
L 2181 1938 
Q 2181 2297 2153 2390 
Q 2125 2484 2058 2536 
Q 1991 2588 1909 2588 
Q 1641 2588 1409 2203 
L 1409 638 
Q 1409 309 1470 221 
Q 1531 134 1697 113 
L 1697 0 
L 219 0 
L 219 113 
Q 403 131 481 231 
Q 534 300 534 638 
L 534 2288 
Q 534 2619 473 2700 
Q 413 2781 219 2806 
L 219 2922 
L 1409 2922 
z
" transform="scale(0.015625)"/>
       <path id="TimesNewRomanPS-BoldMT-75" d="M 3038 2922 
L 3038 634 
Q 3038 300 3100 217 
Q 3163 134 3353 113 
L 3353 0 
L 2163 0 
L 2163 391 
Q 1953 141 1743 26 
Q 1534 -88 1275 -88 
Q 1028 -88 836 64 
Q 644 216 578 419 
Q 513 622 513 1128 
L 513 2288 
Q 513 2619 452 2700 
Q 391 2781 197 2806 
L 197 2922 
L 1388 2922 
L 1388 925 
Q 1388 613 1417 522 
Q 1447 431 1511 384 
Q 1575 338 1659 338 
Q 1772 338 1863 397 
Q 1988 478 2163 725 
L 2163 2288 
Q 2163 2619 2102 2700 
Q 2041 2781 1847 2806 
L 1847 2922 
L 3038 2922 
z
" transform="scale(0.015625)"/>
       <path id="TimesNewRomanPS-BoldMT-79" d="M 1556 -119 
L 613 2047 
Q 400 2538 298 2650 
Q 197 2763 53 2806 
L 53 2922 
L 1606 2922 
L 1606 2806 
Q 1453 2800 1390 2747 
Q 1328 2694 1328 2619 
Q 1328 2500 1484 2150 
L 1984 1006 
L 2325 1891 
Q 2509 2363 2509 2547 
Q 2509 2663 2432 2731 
Q 2356 2800 2163 2806 
L 2163 2922 
L 3141 2922 
L 3141 2806 
Q 2997 2791 2906 2695 
Q 2816 2600 2603 2047 
L 1769 -119 
Q 1453 -931 1300 -1119 
Q 1084 -1381 759 -1381 
Q 500 -1381 339 -1232 
Q 178 -1084 178 -875 
Q 178 -694 289 -575 
Q 400 -456 563 -456 
Q 719 -456 814 -556 
Q 909 -656 913 -866 
Q 916 -984 941 -1019 
Q 966 -1053 1013 -1053 
Q 1088 -1053 1172 -963 
Q 1297 -831 1466 -363 
L 1556 -119 
z
" transform="scale(0.015625)"/>
       <path id="TimesNewRomanPS-BoldMT-28" d="M 2056 4334 
L 2056 4191 
Q 1731 3978 1578 3775 
Q 1366 3494 1247 3053 
Q 1097 2506 1097 1525 
Q 1097 600 1233 87 
Q 1369 -425 1603 -741 
Q 1766 -959 2056 -1125 
L 2056 -1281 
Q 1303 -1028 779 -248 
Q 256 531 256 1544 
Q 256 2544 778 3314 
Q 1300 4084 2056 4334 
z
" transform="scale(0.015625)"/>
       <path id="TimesNewRomanPS-BoldMT-25" d="M 4916 4334 
L 1906 -178 
L 1488 -178 
L 4494 4334 
L 4916 4334 
z
M 1494 4334 
Q 1938 4334 2242 4020 
Q 2547 3706 2547 3209 
Q 2547 2700 2240 2383 
Q 1934 2066 1481 2066 
Q 1034 2066 739 2372 
Q 444 2678 444 3178 
Q 444 3694 747 4014 
Q 1050 4334 1494 4334 
z
M 1494 4169 
Q 1425 4169 1381 4128 
Q 1303 4056 1264 3879 
Q 1225 3703 1225 3150 
Q 1225 2709 1278 2469 
Q 1309 2331 1384 2263 
Q 1431 2222 1494 2222 
Q 1563 2222 1603 2259 
Q 1675 2325 1709 2472 
Q 1763 2709 1763 3138 
Q 1763 3663 1713 3897 
Q 1678 4059 1600 4134 
Q 1563 4169 1494 4169 
z
M 4894 2097 
Q 5347 2097 5651 1786 
Q 5956 1475 5956 972 
Q 5956 463 5647 144 
Q 5338 -175 4900 -175 
Q 4466 -175 4161 144 
Q 3856 463 3856 963 
Q 3856 1466 4153 1781 
Q 4450 2097 4894 2097 
z
M 4903 1934 
Q 4841 1934 4797 1897 
Q 4722 1828 4681 1658 
Q 4641 1488 4641 1006 
Q 4641 494 4688 269 
Q 4722 109 4803 38 
Q 4844 0 4909 0 
Q 4969 0 5006 34 
Q 5084 106 5122 269 
Q 5175 497 5175 959 
Q 5175 1447 5125 1672 
Q 5088 1834 5013 1900 
Q 4975 1934 4903 1934 
z
" transform="scale(0.015625)"/>
       <path id="TimesNewRomanPS-BoldMT-29" d="M 78 -1281 
L 78 -1138 
Q 403 -922 556 -719 
Q 766 -438 888 0 
Q 1038 550 1038 1531 
Q 1038 2456 902 2967 
Q 766 3478 531 3794 
Q 369 4013 78 4178 
L 78 4334 
Q 831 4081 1354 3301 
Q 1878 2522 1878 1509 
Q 1878 513 1354 -257 
Q 831 -1028 78 -1281 
z
" transform="scale(0.015625)"/>
      </defs>
      <use xlink:href="#TimesNewRomanPS-BoldMT-5a"/>
      <use xlink:href="#TimesNewRomanPS-BoldMT-65" x="66.699219"/>
      <use xlink:href="#TimesNewRomanPS-BoldMT-72" x="111.083984"/>
      <use xlink:href="#TimesNewRomanPS-BoldMT-6f" x="153.71875"/>
      <use xlink:href="#TimesNewRomanPS-BoldMT-2d" x="203.71875"/>
      <use xlink:href="#TimesNewRomanPS-BoldMT-73" x="237.019531"/>
      <use xlink:href="#TimesNewRomanPS-BoldMT-68" x="275.935547"/>
      <use xlink:href="#TimesNewRomanPS-BoldMT-6f" x="331.550781"/>
      <use xlink:href="#TimesNewRomanPS-BoldMT-74" x="381.550781"/>
      <use xlink:href="#TimesNewRomanPS-BoldMT-20" x="414.851562"/>
      <use xlink:href="#TimesNewRomanPS-BoldMT-63" x="439.851562"/>
      <use xlink:href="#TimesNewRomanPS-BoldMT-6c" x="484.236328"/>
      <use xlink:href="#TimesNewRomanPS-BoldMT-65" x="512.019531"/>
      <use xlink:href="#TimesNewRomanPS-BoldMT-61" x="556.404297"/>
      <use xlink:href="#TimesNewRomanPS-BoldMT-6e" x="606.404297"/>
      <use xlink:href="#TimesNewRomanPS-BoldMT-20" x="662.019531"/>
      <use xlink:href="#TimesNewRomanPS-BoldMT-61" x="687.019531"/>
      <use xlink:href="#TimesNewRomanPS-BoldMT-63" x="737.019531"/>
      <use xlink:href="#TimesNewRomanPS-BoldMT-63" x="781.404297"/>
      <use xlink:href="#TimesNewRomanPS-BoldMT-75" x="825.789062"/>
      <use xlink:href="#TimesNewRomanPS-BoldMT-72" x="881.404297"/>
      <use xlink:href="#TimesNewRomanPS-BoldMT-61" x="925.789062"/>
      <use xlink:href="#TimesNewRomanPS-BoldMT-63" x="975.789062"/>
      <use xlink:href="#TimesNewRomanPS-BoldMT-79" x="1020.173828"/>
      <use xlink:href="#TimesNewRomanPS-BoldMT-28" x="1070.173828"/>
      <use xlink:href="#TimesNewRomanPS-BoldMT-25" x="1103.474609"/>
      <use xlink:href="#TimesNewRomanPS-BoldMT-29" x="1203.474609"/>
     </g>
    </g>
   </g>
   <g id="matplotlib.axis_2">
    <g id="ytick_1">
     <g id="line2d_11">
      <path d="M 90 384.48 
L 648 384.48 
" clip-path="url(#padb9a08eaf)" style="fill: none"/>
     </g>
     <g id="line2d_12">
      <defs>
       <path id="m5ee0264df6" d="M 0 0 
L -3.5 0 
" style="stroke: #000000; stroke-width: 0.8"/>
      </defs>
      <g>
       <use xlink:href="#m5ee0264df6" x="90" y="384.48" style="stroke: #000000; stroke-width: 0.8"/>
      </g>
     </g>
     <g id="text_7">
      <!-- 0 -->
      <g transform="translate(78 387.951875) scale(0.1 -0.1)">
       <use xlink:href="#TimesNewRomanPSMT-30"/>
      </g>
     </g>
    </g>
    <g id="ytick_2">
     <g id="line2d_13">
      <path d="M 90 317.952 
L 648 317.952 
" clip-path="url(#padb9a08eaf)" style="fill: none"/>
     </g>
     <g id="line2d_14">
      <g>
       <use xlink:href="#m5ee0264df6" x="90" y="317.952" style="stroke: #000000; stroke-width: 0.8"/>
      </g>
     </g>
     <g id="text_8">
      <!-- 10 -->
      <g transform="translate(73 321.423875) scale(0.1 -0.1)">
       <defs>
        <path id="TimesNewRomanPSMT-31" d="M 750 3822 
L 1781 4325 
L 1884 4325 
L 1884 747 
Q 1884 391 1914 303 
Q 1944 216 2037 169 
Q 2131 122 2419 116 
L 2419 0 
L 825 0 
L 825 116 
Q 1125 122 1212 167 
Q 1300 213 1334 289 
Q 1369 366 1369 747 
L 1369 3034 
Q 1369 3497 1338 3628 
Q 1316 3728 1258 3775 
Q 1200 3822 1119 3822 
Q 1003 3822 797 3725 
L 750 3822 
z
" transform="scale(0.015625)"/>
       </defs>
       <use xlink:href="#TimesNewRomanPSMT-31"/>
       <use xlink:href="#TimesNewRomanPSMT-30" x="50"/>
      </g>
     </g>
    </g>
    <g id="ytick_3">
     <g id="line2d_15">
      <path d="M 90 251.424 
L 648 251.424 
" clip-path="url(#padb9a08eaf)" style="fill: none"/>
     </g>
     <g id="line2d_16">
      <g>
       <use xlink:href="#m5ee0264df6" x="90" y="251.424" style="stroke: #000000; stroke-width: 0.8"/>
      </g>
     </g>
     <g id="text_9">
      <!-- 20 -->
      <g transform="translate(73 254.895875) scale(0.1 -0.1)">
       <defs>
        <path id="TimesNewRomanPSMT-32" d="M 2934 816 
L 2638 0 
L 138 0 
L 138 116 
Q 1241 1122 1691 1759 
Q 2141 2397 2141 2925 
Q 2141 3328 1894 3587 
Q 1647 3847 1303 3847 
Q 991 3847 742 3664 
Q 494 3481 375 3128 
L 259 3128 
Q 338 3706 661 4015 
Q 984 4325 1469 4325 
Q 1984 4325 2329 3994 
Q 2675 3663 2675 3213 
Q 2675 2891 2525 2569 
Q 2294 2063 1775 1497 
Q 997 647 803 472 
L 1909 472 
Q 2247 472 2383 497 
Q 2519 522 2628 598 
Q 2738 675 2819 816 
L 2934 816 
z
" transform="scale(0.015625)"/>
       </defs>
       <use xlink:href="#TimesNewRomanPSMT-32"/>
       <use xlink:href="#TimesNewRomanPSMT-30" x="50"/>
      </g>
     </g>
    </g>
    <g id="ytick_4">
     <g id="line2d_17">
      <path d="M 90 184.896 
L 648 184.896 
" clip-path="url(#padb9a08eaf)" style="fill: none"/>
     </g>
     <g id="line2d_18">
      <g>
       <use xlink:href="#m5ee0264df6" x="90" y="184.896" style="stroke: #000000; stroke-width: 0.8"/>
      </g>
     </g>
     <g id="text_10">
      <!-- 30 -->
      <g transform="translate(73 188.367875) scale(0.1 -0.1)">
       <defs>
        <path id="TimesNewRomanPSMT-33" d="M 325 3431 
Q 506 3859 782 4092 
Q 1059 4325 1472 4325 
Q 1981 4325 2253 3994 
Q 2459 3747 2459 3466 
Q 2459 3003 1878 2509 
Q 2269 2356 2469 2072 
Q 2669 1788 2669 1403 
Q 2669 853 2319 450 
Q 1863 -75 997 -75 
Q 569 -75 414 31 
Q 259 138 259 259 
Q 259 350 332 419 
Q 406 488 509 488 
Q 588 488 669 463 
Q 722 447 909 348 
Q 1097 250 1169 231 
Q 1284 197 1416 197 
Q 1734 197 1970 444 
Q 2206 691 2206 1028 
Q 2206 1275 2097 1509 
Q 2016 1684 1919 1775 
Q 1784 1900 1550 2001 
Q 1316 2103 1072 2103 
L 972 2103 
L 972 2197 
Q 1219 2228 1467 2375 
Q 1716 2522 1828 2728 
Q 1941 2934 1941 3181 
Q 1941 3503 1739 3701 
Q 1538 3900 1238 3900 
Q 753 3900 428 3381 
L 325 3431 
z
" transform="scale(0.015625)"/>
       </defs>
       <use xlink:href="#TimesNewRomanPSMT-33"/>
       <use xlink:href="#TimesNewRomanPSMT-30" x="50"/>
      </g>
     </g>
    </g>
    <g id="ytick_5">
     <g id="line2d_19">
      <path d="M 90 118.368 
L 648 118.368 
" clip-path="url(#padb9a08eaf)" style="fill: none"/>
     </g>
     <g id="line2d_20">
      <g>
       <use xlink:href="#m5ee0264df6" x="90" y="118.368" style="stroke: #000000; stroke-width: 0.8"/>
      </g>
     </g>
     <g id="text_11">
      <!-- 40 -->
      <g transform="translate(73 121.839875) scale(0.1 -0.1)">
       <use xlink:href="#TimesNewRomanPSMT-34"/>
       <use xlink:href="#TimesNewRomanPSMT-30" x="50"/>
      </g>
     </g>
    </g>
    <g id="ytick_6">
     <g id="line2d_21">
      <path d="M 90 51.84 
L 648 51.84 
" clip-path="url(#padb9a08eaf)" style="fill: none"/>
     </g>
     <g id="line2d_22">
      <g>
       <use xlink:href="#m5ee0264df6" x="90" y="51.84" style="stroke: #000000; stroke-width: 0.8"/>
      </g>
     </g>
     <g id="text_12">
      <!-- 50 -->
      <g transform="translate(73 55.311875) scale(0.1 -0.1)">
       <use xlink:href="#TimesNewRomanPSMT-35"/>
       <use xlink:href="#TimesNewRomanPSMT-30" x="50"/>
      </g>
     </g>
    </g>
    <g id="text_13">
     <!-- Zero-shot adversarial accuracy(%) -->
     <g transform="translate(64.684375 367.949062) rotate(-90) scale(0.2 -0.2)">
      <defs>
       <path id="TimesNewRomanPS-BoldMT-64" d="M 3056 4238 
L 3056 875 
Q 3056 534 3075 472 
Q 3100 369 3170 319 
Q 3241 269 3416 256 
L 3416 153 
L 2181 -88 
L 2181 375 
Q 1959 106 1786 9 
Q 1613 -88 1394 -88 
Q 834 -88 509 413 
Q 247 819 247 1409 
Q 247 1881 409 2254 
Q 572 2628 855 2818 
Q 1138 3009 1463 3009 
Q 1672 3009 1834 2928 
Q 1997 2847 2181 2644 
L 2181 3525 
Q 2181 3859 2153 3928 
Q 2116 4019 2041 4062 
Q 1966 4106 1759 4106 
L 1759 4238 
L 3056 4238 
z
M 2181 2256 
Q 1950 2700 1616 2700 
Q 1500 2700 1425 2638 
Q 1309 2541 1236 2297 
Q 1163 2053 1163 1550 
Q 1163 997 1244 731 
Q 1325 466 1466 347 
Q 1538 288 1663 288 
Q 1938 288 2181 719 
L 2181 2256 
z
" transform="scale(0.015625)"/>
       <path id="TimesNewRomanPS-BoldMT-76" d="M 1534 -88 
L 550 2178 
Q 372 2588 272 2697 
Q 200 2778 59 2806 
L 59 2922 
L 1613 2922 
L 1613 2806 
Q 1466 2806 1413 2753 
Q 1338 2684 1338 2591 
Q 1338 2475 1475 2156 
L 1956 1059 
L 2341 2006 
Q 2506 2413 2506 2581 
Q 2506 2678 2436 2739 
Q 2366 2800 2188 2806 
L 2188 2922 
L 3144 2922 
L 3144 2806 
Q 3006 2788 2918 2703 
Q 2831 2619 2656 2206 
L 1681 -88 
L 1534 -88 
z
" transform="scale(0.015625)"/>
       <path id="TimesNewRomanPS-BoldMT-69" d="M 919 4338 
Q 1122 4338 1262 4195 
Q 1403 4053 1403 3853 
Q 1403 3653 1261 3512 
Q 1119 3372 919 3372 
Q 719 3372 578 3512 
Q 438 3653 438 3853 
Q 438 4053 578 4195 
Q 719 4338 919 4338 
z
M 1356 2922 
L 1356 606 
Q 1356 297 1428 211 
Q 1500 125 1709 113 
L 1709 0 
L 131 0 
L 131 113 
Q 325 119 419 225 
Q 481 297 481 606 
L 481 2313 
Q 481 2622 409 2708 
Q 338 2794 131 2806 
L 131 2922 
L 1356 2922 
z
" transform="scale(0.015625)"/>
      </defs>
      <use xlink:href="#TimesNewRomanPS-BoldMT-5a"/>
      <use xlink:href="#TimesNewRomanPS-BoldMT-65" x="66.699219"/>
      <use xlink:href="#TimesNewRomanPS-BoldMT-72" x="111.083984"/>
      <use xlink:href="#TimesNewRomanPS-BoldMT-6f" x="153.71875"/>
      <use xlink:href="#TimesNewRomanPS-BoldMT-2d" x="203.71875"/>
      <use xlink:href="#TimesNewRomanPS-BoldMT-73" x="237.019531"/>
      <use xlink:href="#TimesNewRomanPS-BoldMT-68" x="275.935547"/>
      <use xlink:href="#TimesNewRomanPS-BoldMT-6f" x="331.550781"/>
      <use xlink:href="#TimesNewRomanPS-BoldMT-74" x="381.550781"/>
      <use xlink:href="#TimesNewRomanPS-BoldMT-20" x="414.851562"/>
      <use xlink:href="#TimesNewRomanPS-BoldMT-61" x="439.851562"/>
      <use xlink:href="#TimesNewRomanPS-BoldMT-64" x="489.851562"/>
      <use xlink:href="#TimesNewRomanPS-BoldMT-76" x="545.466797"/>
      <use xlink:href="#TimesNewRomanPS-BoldMT-65" x="595.466797"/>
      <use xlink:href="#TimesNewRomanPS-BoldMT-72" x="639.851562"/>
      <use xlink:href="#TimesNewRomanPS-BoldMT-73" x="684.236328"/>
      <use xlink:href="#TimesNewRomanPS-BoldMT-61" x="723.152344"/>
      <use xlink:href="#TimesNewRomanPS-BoldMT-72" x="773.152344"/>
      <use xlink:href="#TimesNewRomanPS-BoldMT-69" x="817.537109"/>
      <use xlink:href="#TimesNewRomanPS-BoldMT-61" x="845.320312"/>
      <use xlink:href="#TimesNewRomanPS-BoldMT-6c" x="895.320312"/>
      <use xlink:href="#TimesNewRomanPS-BoldMT-20" x="923.103516"/>
      <use xlink:href="#TimesNewRomanPS-BoldMT-61" x="948.103516"/>
      <use xlink:href="#TimesNewRomanPS-BoldMT-63" x="998.103516"/>
      <use xlink:href="#TimesNewRomanPS-BoldMT-63" x="1042.488281"/>
      <use xlink:href="#TimesNewRomanPS-BoldMT-75" x="1086.873047"/>
      <use xlink:href="#TimesNewRomanPS-BoldMT-72" x="1142.488281"/>
      <use xlink:href="#TimesNewRomanPS-BoldMT-61" x="1186.873047"/>
      <use xlink:href="#TimesNewRomanPS-BoldMT-63" x="1236.873047"/>
      <use xlink:href="#TimesNewRomanPS-BoldMT-79" x="1281.257812"/>
      <use xlink:href="#TimesNewRomanPS-BoldMT-28" x="1331.257812"/>
      <use xlink:href="#TimesNewRomanPS-BoldMT-25" x="1364.558594"/>
      <use xlink:href="#TimesNewRomanPS-BoldMT-29" x="1464.558594"/>
     </g>
    </g>
   </g>
   <g id="line2d_23">
    <path d="M 121.62 171.539038 
L 126.565909 172.849889 
L 131.511818 174.16074 
L 136.457727 175.471591 
L 141.403636 176.782441 
L 146.349545 178.093292 
L 151.295455 179.404143 
L 156.241364 180.714994 
L 161.187273 182.025845 
L 166.133182 183.336696 
L 171.079091 184.647547 
L 176.025 185.958398 
L 180.970909 187.269248 
L 185.916818 188.580099 
L 190.862727 189.89095 
L 195.808636 191.201801 
L 200.754545 192.512652 
L 205.700455 193.823503 
L 210.646364 195.134354 
L 215.592273 196.445204 
L 220.538182 197.756055 
L 225.484091 199.066906 
L 230.43 200.377757 
L 235.375909 201.688608 
L 240.321818 202.999459 
L 245.267727 204.31031 
L 250.213636 205.62116 
L 255.159545 206.932011 
L 260.105455 208.242862 
L 265.051364 209.553713 
L 269.997273 210.864564 
L 274.943182 212.175415 
L 279.889091 213.486266 
L 284.835 214.797116 
L 289.780909 216.107967 
L 294.726818 217.418818 
L 299.672727 218.729669 
L 304.618636 220.04052 
L 309.564545 221.351371 
L 314.510455 222.662222 
L 319.456364 223.973073 
L 324.402273 225.283923 
L 329.348182 226.594774 
L 334.294091 227.905625 
L 339.24 229.216476 
L 344.185909 230.527327 
L 349.131818 231.838178 
L 354.077727 233.149029 
L 359.023636 234.459879 
L 363.969545 235.77073 
L 368.915455 237.081581 
L 373.861364 238.392432 
L 378.807273 239.703283 
L 383.753182 241.014134 
L 388.699091 242.324985 
L 393.645 243.635835 
L 398.590909 244.946686 
L 403.536818 246.257537 
L 408.482727 247.568388 
L 413.428636 248.879239 
L 418.374545 250.19009 
L 423.320455 251.500941 
L 428.266364 252.811791 
L 433.212273 254.122642 
L 438.158182 255.433493 
L 443.104091 256.744344 
L 448.05 258.055195 
L 452.995909 259.366046 
L 457.941818 260.676897 
L 462.887727 261.987748 
L 467.833636 263.298598 
L 472.779545 264.609449 
L 477.725455 265.9203 
L 482.671364 267.231151 
L 487.617273 268.542002 
L 492.563182 269.852853 
L 497.509091 271.163704 
L 502.455 272.474554 
L 507.400909 273.785405 
L 512.346818 275.096256 
L 517.292727 276.407107 
L 522.238636 277.717958 
L 527.184545 279.028809 
L 532.130455 280.33966 
L 537.076364 281.65051 
L 542.022273 282.961361 
L 546.968182 284.272212 
L 551.914091 285.583063 
L 556.86 286.893914 
L 561.805909 288.204765 
L 566.751818 289.515616 
L 571.697727 290.826467 
L 576.643636 292.137317 
L 581.589545 293.448168 
L 586.535455 294.759019 
L 591.481364 296.06987 
L 596.427273 297.380721 
L 601.373182 298.691572 
L 606.319091 300.002423 
L 611.265 301.313273 
" clip-path="url(#padb9a08eaf)" style="fill: none; stroke-dasharray: 5.55,2.4; stroke-dashoffset: 0; stroke: #87ceeb; stroke-width: 1.5"/>
   </g>
   <g id="patch_3">
    <path d="M 90 384.48 
L 90 51.84 
" style="fill: none; stroke: #000000; stroke-width: 0.8; stroke-linejoin: miter; stroke-linecap: square"/>
   </g>
   <g id="patch_4">
    <path d="M 648 384.48 
L 648 51.84 
" style="fill: none; stroke: #000000; stroke-width: 0.8; stroke-linejoin: miter; stroke-linecap: square"/>
   </g>
   <g id="patch_5">
    <path d="M 90 384.48 
L 648 384.48 
" style="fill: none; stroke: #000000; stroke-width: 0.8; stroke-linejoin: miter; stroke-linecap: square"/>
   </g>
   <g id="patch_6">
    <path d="M 90 51.84 
L 648 51.84 
" style="fill: none; stroke: #000000; stroke-width: 0.8; stroke-linejoin: miter; stroke-linecap: square"/>
   </g>
   <g id="text_14">
    <!-- CLIP -->
    <g transform="translate(593.345859 369.88128) scale(0.15 -0.15)">
     <defs>
      <path id="TimesNewRomanPS-BoldMT-43" d="M 4272 4334 
L 4272 2866 
L 4150 2866 
Q 4013 3441 3638 3747 
Q 3263 4053 2788 4053 
Q 2391 4053 2059 3825 
Q 1728 3597 1575 3228 
Q 1378 2756 1378 2178 
Q 1378 1609 1522 1142 
Q 1666 675 1972 436 
Q 2278 197 2766 197 
Q 3166 197 3498 372 
Q 3831 547 4200 975 
L 4200 609 
Q 3844 238 3458 70 
Q 3072 -97 2556 -97 
Q 1878 -97 1351 175 
Q 825 447 539 956 
Q 253 1466 253 2041 
Q 253 2647 570 3190 
Q 888 3734 1427 4034 
Q 1966 4334 2572 4334 
Q 3019 4334 3516 4141 
Q 3803 4028 3881 4028 
Q 3981 4028 4054 4101 
Q 4128 4175 4150 4334 
L 4272 4334 
z
" transform="scale(0.015625)"/>
      <path id="TimesNewRomanPS-BoldMT-4c" d="M 4041 1488 
L 3881 0 
L 119 0 
L 119 116 
L 259 116 
Q 444 116 556 181 
Q 638 225 681 331 
Q 716 406 716 725 
L 716 3513 
Q 716 3838 681 3919 
Q 647 4000 542 4061 
Q 438 4122 259 4122 
L 119 4122 
L 119 4238 
L 2378 4238 
L 2378 4122 
L 2194 4122 
Q 2009 4122 1897 4056 
Q 1816 4013 1769 3906 
Q 1734 3831 1734 3513 
L 1734 813 
Q 1734 488 1771 398 
Q 1809 309 1919 266 
Q 1997 238 2297 238 
L 2650 238 
Q 2988 238 3213 356 
Q 3438 475 3602 731 
Q 3766 988 3913 1488 
L 4041 1488 
z
" transform="scale(0.015625)"/>
      <path id="TimesNewRomanPS-BoldMT-49" d="M 2344 116 
L 2344 0 
L 128 0 
L 128 116 
L 269 116 
Q 453 116 566 181 
Q 647 225 691 331 
Q 725 406 725 725 
L 725 3513 
Q 725 3838 690 3919 
Q 656 4000 551 4061 
Q 447 4122 269 4122 
L 128 4122 
L 128 4238 
L 2344 4238 
L 2344 4122 
L 2203 4122 
Q 2019 4122 1906 4056 
Q 1825 4013 1778 3906 
Q 1744 3831 1744 3513 
L 1744 725 
Q 1744 400 1780 319 
Q 1816 238 1920 177 
Q 2025 116 2203 116 
L 2344 116 
z
" transform="scale(0.015625)"/>
      <path id="TimesNewRomanPS-BoldMT-50" d="M 1728 1919 
L 1728 744 
Q 1728 400 1770 311 
Q 1813 222 1920 169 
Q 2028 116 2316 116 
L 2316 0 
L 163 0 
L 163 116 
Q 456 116 561 170 
Q 666 225 708 312 
Q 750 400 750 744 
L 750 3494 
Q 750 3838 708 3927 
Q 666 4016 559 4069 
Q 453 4122 163 4122 
L 163 4238 
L 2009 4238 
Q 2922 4238 3319 3913 
Q 3716 3588 3716 3100 
Q 3716 2688 3459 2394 
Q 3203 2100 2753 1994 
Q 2450 1919 1728 1919 
z
M 1728 3994 
L 1728 2163 
Q 1831 2156 1884 2156 
Q 2266 2156 2472 2382 
Q 2678 2609 2678 3084 
Q 2678 3556 2472 3775 
Q 2266 3994 1856 3994 
L 1728 3994 
z
" transform="scale(0.015625)"/>
     </defs>
     <use xlink:href="#TimesNewRomanPS-BoldMT-43"/>
     <use xlink:href="#TimesNewRomanPS-BoldMT-4c" x="72.216797"/>
     <use xlink:href="#TimesNewRomanPS-BoldMT-49" x="138.916016"/>
     <use xlink:href="#TimesNewRomanPS-BoldMT-50" x="177.832031"/>
    </g>
   </g>
   <g id="text_15">
    <!-- FT-Clean -->
    <g transform="translate(347.456016 355.57776) scale(0.15 -0.15)">
     <defs>
      <path id="TimesNewRomanPS-BoldMT-46" d="M 1759 3994 
L 1759 2253 
L 1881 2253 
Q 2163 2253 2341 2337 
Q 2519 2422 2642 2622 
Q 2766 2822 2803 3163 
L 2913 3163 
L 2913 1034 
L 2803 1034 
Q 2744 1638 2480 1830 
Q 2216 2022 1881 2022 
L 1759 2022 
L 1759 725 
Q 1759 400 1795 319 
Q 1831 238 1936 177 
Q 2041 116 2219 116 
L 2359 116 
L 2359 0 
L 144 0 
L 144 116 
L 284 116 
Q 469 116 581 181 
Q 663 225 706 331 
Q 741 406 741 725 
L 741 3513 
Q 741 3838 706 3919 
Q 672 4000 567 4061 
Q 463 4122 284 4122 
L 144 4122 
L 144 4238 
L 3719 4238 
L 3719 3022 
L 3591 3022 
Q 3547 3450 3367 3656 
Q 3188 3863 2847 3947 
Q 2659 3994 2153 3994 
L 1759 3994 
z
" transform="scale(0.015625)"/>
      <path id="TimesNewRomanPS-BoldMT-54" d="M 4038 4238 
L 4038 3091 
L 3925 3091 
Q 3825 3488 3703 3661 
Q 3581 3834 3369 3938 
Q 3250 3994 2953 3994 
L 2638 3994 
L 2638 725 
Q 2638 400 2673 319 
Q 2709 238 2814 177 
Q 2919 116 3100 116 
L 3241 116 
L 3241 0 
L 1022 0 
L 1022 116 
L 1163 116 
Q 1347 116 1459 181 
Q 1541 225 1588 331 
Q 1622 406 1622 725 
L 1622 3994 
L 1316 3994 
Q 888 3994 694 3813 
Q 422 3559 350 3091 
L 231 3091 
L 231 4238 
L 4038 4238 
z
" transform="scale(0.015625)"/>
     </defs>
     <use xlink:href="#TimesNewRomanPS-BoldMT-46"/>
     <use xlink:href="#TimesNewRomanPS-BoldMT-54" x="61.083984"/>
     <use xlink:href="#TimesNewRomanPS-BoldMT-2d" x="118.658203"/>
     <use xlink:href="#TimesNewRomanPS-BoldMT-43" x="151.958984"/>
     <use xlink:href="#TimesNewRomanPS-BoldMT-6c" x="224.175781"/>
     <use xlink:href="#TimesNewRomanPS-BoldMT-65" x="251.958984"/>
     <use xlink:href="#TimesNewRomanPS-BoldMT-61" x="296.34375"/>
     <use xlink:href="#TimesNewRomanPS-BoldMT-6e" x="346.34375"/>
    </g>
   </g>
   <g id="text_16">
    <!-- FT-Adv. -->
    <g transform="translate(95.423906 210.679776) scale(0.15 -0.15)">
     <defs>
      <path id="TimesNewRomanPS-BoldMT-41" d="M 2663 1206 
L 1166 1206 
L 988 794 
Q 900 588 900 453 
Q 900 275 1044 191 
Q 1128 141 1459 116 
L 1459 0 
L 50 0 
L 50 116 
Q 278 150 425 304 
Q 572 459 788 944 
L 2303 4325 
L 2363 4325 
L 3891 850 
Q 4109 356 4250 228 
Q 4356 131 4550 116 
L 4550 0 
L 2500 0 
L 2500 116 
L 2584 116 
Q 2831 116 2931 184 
Q 3000 234 3000 328 
Q 3000 384 2981 444 
Q 2975 472 2888 678 
L 2663 1206 
z
M 2556 1438 
L 1925 2897 
L 1275 1438 
L 2556 1438 
z
" transform="scale(0.015625)"/>
      <path id="TimesNewRomanPS-BoldMT-2e" d="M 800 963 
Q 1019 963 1170 809 
Q 1322 656 1322 441 
Q 1322 225 1169 73 
Q 1016 -78 800 -78 
Q 584 -78 432 73 
Q 281 225 281 441 
Q 281 656 432 809 
Q 584 963 800 963 
z
" transform="scale(0.015625)"/>
     </defs>
     <use xlink:href="#TimesNewRomanPS-BoldMT-46"/>
     <use xlink:href="#TimesNewRomanPS-BoldMT-54" x="61.083984"/>
     <use xlink:href="#TimesNewRomanPS-BoldMT-2d" x="118.658203"/>
     <use xlink:href="#TimesNewRomanPS-BoldMT-41" x="151.958984"/>
     <use xlink:href="#TimesNewRomanPS-BoldMT-64" x="224.175781"/>
     <use xlink:href="#TimesNewRomanPS-BoldMT-76" x="279.791016"/>
     <use xlink:href="#TimesNewRomanPS-BoldMT-2e" x="324.291016"/>
    </g>
   </g>
   <g id="text_17">
    <!-- TeCoA -->
    <g transform="translate(156.352031 215.802432) scale(0.15 -0.15)">
     <use xlink:href="#TimesNewRomanPS-BoldMT-54"/>
     <use xlink:href="#TimesNewRomanPS-BoldMT-65" x="57.574219"/>
     <use xlink:href="#TimesNewRomanPS-BoldMT-43" x="101.958984"/>
     <use xlink:href="#TimesNewRomanPS-BoldMT-6f" x="174.175781"/>
     <use xlink:href="#TimesNewRomanPS-BoldMT-41" x="224.175781"/>
    </g>
   </g>
   <g id="text_18">
    <!-- PMG-AFT -->
    <g transform="translate(161.958984 186.197472) scale(0.15 -0.15)">
     <defs>
      <path id="TimesNewRomanPS-BoldMT-4d" d="M 3050 1444 
L 4200 4238 
L 5925 4238 
L 5925 4122 
L 5788 4122 
Q 5600 4122 5488 4056 
Q 5409 4013 5363 3909 
Q 5328 3834 5328 3519 
L 5328 725 
Q 5328 400 5362 319 
Q 5397 238 5503 177 
Q 5609 116 5788 116 
L 5925 116 
L 5925 0 
L 3713 0 
L 3713 116 
L 3850 116 
Q 4038 116 4150 181 
Q 4228 225 4275 331 
Q 4309 406 4309 725 
L 4309 3866 
L 2684 0 
L 2609 0 
L 959 3838 
L 959 853 
Q 959 541 975 469 
Q 1016 313 1152 214 
Q 1288 116 1578 116 
L 1578 0 
L 128 0 
L 128 116 
L 172 116 
Q 313 113 434 161 
Q 556 209 618 290 
Q 681 372 716 519 
Q 722 553 722 838 
L 722 3519 
Q 722 3841 687 3920 
Q 653 4000 547 4061 
Q 441 4122 263 4122 
L 128 4122 
L 128 4238 
L 1859 4238 
L 3050 1444 
z
" transform="scale(0.015625)"/>
      <path id="TimesNewRomanPS-BoldMT-47" d="M 4416 4334 
L 4416 2841 
L 4300 2841 
Q 4091 3453 3672 3772 
Q 3253 4091 2756 4091 
Q 2281 4091 1965 3823 
Q 1650 3556 1519 3078 
Q 1388 2600 1388 2097 
Q 1388 1488 1531 1028 
Q 1675 569 1995 353 
Q 2316 138 2756 138 
Q 2909 138 3070 170 
Q 3231 203 3400 266 
L 3400 1147 
Q 3400 1397 3365 1470 
Q 3331 1544 3223 1603 
Q 3116 1663 2963 1663 
L 2853 1663 
L 2853 1778 
L 4913 1778 
L 4913 1663 
Q 4678 1647 4586 1598 
Q 4494 1550 4444 1438 
Q 4416 1378 4416 1147 
L 4416 266 
Q 4009 84 3570 -8 
Q 3131 -100 2659 -100 
Q 2056 -100 1657 64 
Q 1259 228 954 495 
Q 650 763 478 1097 
Q 259 1528 259 2063 
Q 259 3019 931 3678 
Q 1603 4338 2622 4338 
Q 2938 4338 3191 4288 
Q 3328 4263 3636 4145 
Q 3944 4028 4000 4028 
Q 4088 4028 4163 4092 
Q 4238 4156 4300 4334 
L 4416 4334 
z
" transform="scale(0.015625)"/>
     </defs>
     <use xlink:href="#TimesNewRomanPS-BoldMT-50"/>
     <use xlink:href="#TimesNewRomanPS-BoldMT-4d" x="61.083984"/>
     <use xlink:href="#TimesNewRomanPS-BoldMT-47" x="155.46875"/>
     <use xlink:href="#TimesNewRomanPS-BoldMT-2d" x="233.251953"/>
     <use xlink:href="#TimesNewRomanPS-BoldMT-41" x="266.552734"/>
     <use xlink:href="#TimesNewRomanPS-BoldMT-46" x="338.769531"/>
     <use xlink:href="#TimesNewRomanPS-BoldMT-54" x="399.853516"/>
    </g>
   </g>
   <g id="text_19">
    <!-- FARE -->
    <g transform="translate(485.149219 281.0664) scale(0.15 -0.15)">
     <defs>
      <path id="TimesNewRomanPS-BoldMT-52" d="M 1700 1931 
L 1700 744 
Q 1700 400 1742 311 
Q 1784 222 1890 169 
Q 1997 116 2288 116 
L 2288 0 
L 119 0 
L 119 116 
Q 413 116 517 170 
Q 622 225 664 312 
Q 706 400 706 744 
L 706 3494 
Q 706 3838 664 3927 
Q 622 4016 515 4069 
Q 409 4122 119 4122 
L 119 4238 
L 2088 4238 
Q 2856 4238 3212 4131 
Q 3569 4025 3794 3739 
Q 4019 3453 4019 3069 
Q 4019 2600 3681 2294 
Q 3466 2100 3078 2003 
L 4097 569 
Q 4297 291 4381 222 
Q 4509 125 4678 116 
L 4678 0 
L 3344 0 
L 1978 1931 
L 1700 1931 
z
M 1700 4009 
L 1700 2153 
L 1878 2153 
Q 2313 2153 2528 2233 
Q 2744 2313 2867 2520 
Q 2991 2728 2991 3063 
Q 2991 3547 2764 3778 
Q 2538 4009 2034 4009 
L 1700 4009 
z
" transform="scale(0.015625)"/>
      <path id="TimesNewRomanPS-BoldMT-45" d="M 1744 3994 
L 1744 2269 
L 1828 2269 
Q 2231 2269 2412 2522 
Q 2594 2775 2644 3269 
L 2763 3269 
L 2763 1050 
L 2644 1050 
Q 2606 1413 2486 1644 
Q 2366 1875 2206 1954 
Q 2047 2034 1744 2034 
L 1744 841 
Q 1744 491 1773 412 
Q 1803 334 1884 284 
Q 1966 234 2147 234 
L 2400 234 
Q 2994 234 3351 509 
Q 3709 784 3866 1347 
L 3981 1347 
L 3791 0 
L 128 0 
L 128 116 
L 269 116 
Q 453 116 566 181 
Q 647 225 691 331 
Q 725 406 725 725 
L 725 3513 
Q 725 3800 709 3866 
Q 678 3975 594 4034 
Q 475 4122 269 4122 
L 128 4122 
L 128 4238 
L 3675 4238 
L 3675 2984 
L 3556 2984 
Q 3466 3444 3302 3644 
Q 3138 3844 2838 3938 
Q 2663 3994 2181 3994 
L 1744 3994 
z
" transform="scale(0.015625)"/>
     </defs>
     <use xlink:href="#TimesNewRomanPS-BoldMT-46"/>
     <use xlink:href="#TimesNewRomanPS-BoldMT-41" x="53.708984"/>
     <use xlink:href="#TimesNewRomanPS-BoldMT-52" x="125.925781"/>
     <use xlink:href="#TimesNewRomanPS-BoldMT-45" x="198.142578"/>
    </g>
   </g>
   <g id="text_20">
    <!-- TGA-ZSR(ours) -->
    <g transform="translate(453.226484 119.463648) scale(0.15 -0.15)">
     <defs>
      <path id="TimesNewRomanPS-BoldMT-53" d="M 3006 4334 
L 3041 2922 
L 2913 2922 
Q 2822 3453 2467 3776 
Q 2113 4100 1700 4100 
Q 1381 4100 1195 3929 
Q 1009 3759 1009 3538 
Q 1009 3397 1075 3288 
Q 1166 3141 1366 2997 
Q 1513 2894 2044 2631 
Q 2788 2266 3047 1941 
Q 3303 1616 3303 1197 
Q 3303 666 2889 283 
Q 2475 -100 1838 -100 
Q 1638 -100 1459 -59 
Q 1281 -19 1013 94 
Q 863 156 766 156 
Q 684 156 593 93 
Q 503 31 447 -97 
L 331 -97 
L 331 1503 
L 447 1503 
Q 584 828 976 473 
Q 1369 119 1822 119 
Q 2172 119 2380 309 
Q 2588 500 2588 753 
Q 2588 903 2508 1043 
Q 2428 1184 2265 1311 
Q 2103 1438 1691 1641 
Q 1113 1925 859 2125 
Q 606 2325 470 2572 
Q 334 2819 334 3116 
Q 334 3622 706 3978 
Q 1078 4334 1644 4334 
Q 1850 4334 2044 4284 
Q 2191 4247 2402 4145 
Q 2613 4044 2697 4044 
Q 2778 4044 2825 4094 
Q 2872 4144 2913 4334 
L 3006 4334 
z
" transform="scale(0.015625)"/>
     </defs>
     <use xlink:href="#TimesNewRomanPS-BoldMT-54"/>
     <use xlink:href="#TimesNewRomanPS-BoldMT-47" x="66.699219"/>
     <use xlink:href="#TimesNewRomanPS-BoldMT-41" x="144.482422"/>
     <use xlink:href="#TimesNewRomanPS-BoldMT-2d" x="216.699219"/>
     <use xlink:href="#TimesNewRomanPS-BoldMT-5a" x="250"/>
     <use xlink:href="#TimesNewRomanPS-BoldMT-53" x="316.699219"/>
     <use xlink:href="#TimesNewRomanPS-BoldMT-52" x="372.314453"/>
     <use xlink:href="#TimesNewRomanPS-BoldMT-28" x="444.53125"/>
     <use xlink:href="#TimesNewRomanPS-BoldMT-6f" x="477.832031"/>
     <use xlink:href="#TimesNewRomanPS-BoldMT-75" x="527.832031"/>
     <use xlink:href="#TimesNewRomanPS-BoldMT-72" x="583.447266"/>
     <use xlink:href="#TimesNewRomanPS-BoldMT-73" x="627.832031"/>
     <use xlink:href="#TimesNewRomanPS-BoldMT-29" x="666.748047"/>
    </g>
   </g>
   <g id="text_21">
    <!-- Comp-TGA(ours) -->
    <g transform="translate(259.981953 103.696512) scale(0.15 -0.15)">
     <defs>
      <path id="TimesNewRomanPS-BoldMT-6d" d="M 1428 2922 
L 1428 2538 
Q 1669 2800 1873 2904 
Q 2078 3009 2322 3009 
Q 2603 3009 2793 2878 
Q 2984 2747 3088 2478 
Q 3338 2759 3567 2884 
Q 3797 3009 4047 3009 
Q 4350 3009 4529 2870 
Q 4709 2731 4779 2517 
Q 4850 2303 4850 1834 
L 4850 638 
Q 4850 300 4911 219 
Q 4972 138 5166 113 
L 5166 0 
L 3656 0 
L 3656 113 
Q 3834 128 3919 250 
Q 3975 334 3975 638 
L 3975 1894 
Q 3975 2284 3944 2390 
Q 3913 2497 3845 2548 
Q 3778 2600 3688 2600 
Q 3553 2600 3415 2501 
Q 3278 2403 3138 2206 
L 3138 638 
Q 3138 322 3191 241 
Q 3263 125 3466 113 
L 3466 0 
L 1953 0 
L 1953 113 
Q 2075 119 2145 173 
Q 2216 228 2239 304 
Q 2263 381 2263 638 
L 2263 1894 
Q 2263 2291 2231 2391 
Q 2200 2491 2126 2547 
Q 2053 2603 1969 2603 
Q 1844 2603 1741 2538 
Q 1594 2441 1428 2206 
L 1428 638 
Q 1428 328 1489 229 
Q 1550 131 1744 113 
L 1744 0 
L 238 0 
L 238 113 
Q 422 131 500 231 
Q 553 300 553 638 
L 553 2288 
Q 553 2619 492 2700 
Q 431 2781 238 2806 
L 238 2922 
L 1428 2922 
z
" transform="scale(0.015625)"/>
      <path id="TimesNewRomanPS-BoldMT-70" d="M 1347 297 
L 1347 -791 
Q 1347 -1016 1383 -1097 
Q 1419 -1178 1494 -1215 
Q 1569 -1253 1788 -1253 
L 1788 -1369 
L 122 -1369 
L 122 -1253 
Q 316 -1247 409 -1144 
Q 472 -1072 472 -772 
L 472 2313 
Q 472 2622 400 2708 
Q 328 2794 122 2806 
L 122 2922 
L 1347 2922 
L 1347 2538 
Q 1500 2763 1659 2863 
Q 1888 3009 2156 3009 
Q 2478 3009 2742 2806 
Q 3006 2603 3143 2245 
Q 3281 1888 3281 1475 
Q 3281 1031 3139 664 
Q 2997 297 2726 104 
Q 2456 -88 2125 -88 
Q 1884 -88 1675 19 
Q 1519 100 1347 297 
z
M 1347 613 
Q 1616 231 1922 231 
Q 2091 231 2200 409 
Q 2363 672 2363 1409 
Q 2363 2166 2184 2444 
Q 2066 2628 1866 2628 
Q 1550 2628 1347 2172 
L 1347 613 
z
" transform="scale(0.015625)"/>
     </defs>
     <use xlink:href="#TimesNewRomanPS-BoldMT-43"/>
     <use xlink:href="#TimesNewRomanPS-BoldMT-6f" x="72.216797"/>
     <use xlink:href="#TimesNewRomanPS-BoldMT-6d" x="122.216797"/>
     <use xlink:href="#TimesNewRomanPS-BoldMT-70" x="205.517578"/>
     <use xlink:href="#TimesNewRomanPS-BoldMT-2d" x="261.132812"/>
     <use xlink:href="#TimesNewRomanPS-BoldMT-54" x="294.433594"/>
     <use xlink:href="#TimesNewRomanPS-BoldMT-47" x="361.132812"/>
     <use xlink:href="#TimesNewRomanPS-BoldMT-41" x="438.916016"/>
     <use xlink:href="#TimesNewRomanPS-BoldMT-28" x="511.132812"/>
     <use xlink:href="#TimesNewRomanPS-BoldMT-6f" x="544.433594"/>
     <use xlink:href="#TimesNewRomanPS-BoldMT-75" x="594.433594"/>
     <use xlink:href="#TimesNewRomanPS-BoldMT-72" x="650.048828"/>
     <use xlink:href="#TimesNewRomanPS-BoldMT-73" x="694.433594"/>
     <use xlink:href="#TimesNewRomanPS-BoldMT-29" x="733.349609"/>
    </g>
   </g>
  </g>
 </g>
 <defs>
  <clipPath id="padb9a08eaf">
   <rect x="90" y="51.84" width="558" height="332.64"/>
  </clipPath>
 </defs>
</svg>
